<mxfile host="app.diagrams.net" agent="Mozilla/5.0 (Windows NT 10.0; Win64; x64) AppleWebKit/537.36 (KHTML, like Gecko) Chrome/138.0.0.0 Safari/537.36" version="28.0.6">
  <diagram name="Page-1" id="yXaE8Oqyy9oz24kKZIAS">
    <mxGraphModel grid="1" page="1" gridSize="10" guides="1" tooltips="1" connect="1" arrows="1" fold="1" pageScale="1" pageWidth="1700" pageHeight="1100" math="0" shadow="0">
      <root>
        <mxCell id="0" />
        <mxCell id="1" parent="0" />
        <mxCell id="qo8VgZHHuWMzjGTpHocp-3" value="" style="rounded=0;whiteSpace=wrap;html=1;fillColor=none;dashed=1;" vertex="1" parent="1">
          <mxGeometry x="40" y="574" width="171" height="560" as="geometry" />
        </mxCell>
        <mxCell id="qo8VgZHHuWMzjGTpHocp-4" value="" style="rounded=0;whiteSpace=wrap;html=1;strokeColor=none;" vertex="1" parent="1">
          <mxGeometry x="81" y="564" width="80" height="20" as="geometry" />
        </mxCell>
        <mxCell id="qo8VgZHHuWMzjGTpHocp-5" value="&lt;font style=&quot;font-size: 18px;&quot;&gt;&lt;b style=&quot;&quot;&gt;Sources&lt;/b&gt;&lt;/font&gt;" style="text;html=1;align=center;verticalAlign=middle;whiteSpace=wrap;rounded=0;strokeWidth=2;" vertex="1" parent="1">
          <mxGeometry x="90" y="560" width="60" height="30" as="geometry" />
        </mxCell>
        <mxCell id="qo8VgZHHuWMzjGTpHocp-7" value="" style="rounded=1;whiteSpace=wrap;html=1;fillStyle=hatch;fillColor=#CE8946;opacity=30;strokeColor=#CE8946;strokeWidth=2;" vertex="1" parent="1">
          <mxGeometry x="291" y="654" width="180" height="486" as="geometry" />
        </mxCell>
        <mxCell id="qo8VgZHHuWMzjGTpHocp-8" value="" style="rounded=1;whiteSpace=wrap;html=1;fillColor=#CE8946;strokeColor=none;" vertex="1" parent="1">
          <mxGeometry x="290" y="609" width="179" height="40" as="geometry" />
        </mxCell>
        <mxCell id="qo8VgZHHuWMzjGTpHocp-9" value="&lt;b&gt;&lt;font style=&quot;font-size: 18px;&quot;&gt;Bronze Layer&lt;/font&gt;&lt;/b&gt;" style="text;html=1;align=center;verticalAlign=middle;whiteSpace=wrap;rounded=0;" vertex="1" parent="1">
          <mxGeometry x="311" y="614" width="140" height="30" as="geometry" />
        </mxCell>
        <mxCell id="qo8VgZHHuWMzjGTpHocp-69" style="edgeStyle=orthogonalEdgeStyle;rounded=0;orthogonalLoop=1;jettySize=auto;html=1;entryX=0;entryY=0.5;entryDx=0;entryDy=0;" edge="1" parent="1" source="qo8VgZHHuWMzjGTpHocp-10" target="qo8VgZHHuWMzjGTpHocp-40">
          <mxGeometry relative="1" as="geometry" />
        </mxCell>
        <mxCell id="qo8VgZHHuWMzjGTpHocp-10" value="" style="rounded=1;whiteSpace=wrap;html=1;fillColor=#CE8946;strokeColor=none;" vertex="1" parent="1">
          <mxGeometry x="300" y="772" width="161" height="40" as="geometry" />
        </mxCell>
        <mxCell id="qo8VgZHHuWMzjGTpHocp-70" style="edgeStyle=orthogonalEdgeStyle;rounded=0;orthogonalLoop=1;jettySize=auto;html=1;entryX=0;entryY=0.5;entryDx=0;entryDy=0;" edge="1" parent="1" source="qo8VgZHHuWMzjGTpHocp-11" target="qo8VgZHHuWMzjGTpHocp-41">
          <mxGeometry relative="1" as="geometry" />
        </mxCell>
        <mxCell id="qo8VgZHHuWMzjGTpHocp-11" value="" style="rounded=1;whiteSpace=wrap;html=1;fillColor=#CE8946;strokeColor=none;" vertex="1" parent="1">
          <mxGeometry x="301" y="820" width="160" height="40" as="geometry" />
        </mxCell>
        <mxCell id="qo8VgZHHuWMzjGTpHocp-68" style="edgeStyle=orthogonalEdgeStyle;rounded=0;orthogonalLoop=1;jettySize=auto;html=1;entryX=0;entryY=0.5;entryDx=0;entryDy=0;" edge="1" parent="1" source="qo8VgZHHuWMzjGTpHocp-12" target="qo8VgZHHuWMzjGTpHocp-42">
          <mxGeometry relative="1" as="geometry" />
        </mxCell>
        <mxCell id="qo8VgZHHuWMzjGTpHocp-12" value="" style="rounded=1;whiteSpace=wrap;html=1;fillColor=#CE8946;strokeColor=none;" vertex="1" parent="1">
          <mxGeometry x="300" y="724" width="161" height="40" as="geometry" />
        </mxCell>
        <mxCell id="qo8VgZHHuWMzjGTpHocp-21" style="edgeStyle=orthogonalEdgeStyle;rounded=0;orthogonalLoop=1;jettySize=auto;html=1;" edge="1" parent="1" source="qo8VgZHHuWMzjGTpHocp-13">
          <mxGeometry relative="1" as="geometry">
            <mxPoint x="300" y="744" as="targetPoint" />
            <Array as="points">
              <mxPoint x="228" y="792" />
              <mxPoint x="228" y="744" />
              <mxPoint x="300" y="744" />
            </Array>
          </mxGeometry>
        </mxCell>
        <mxCell id="qo8VgZHHuWMzjGTpHocp-25" style="edgeStyle=orthogonalEdgeStyle;rounded=0;orthogonalLoop=1;jettySize=auto;html=1;entryX=0;entryY=0.5;entryDx=0;entryDy=0;" edge="1" parent="1" source="qo8VgZHHuWMzjGTpHocp-13" target="qo8VgZHHuWMzjGTpHocp-10">
          <mxGeometry relative="1" as="geometry" />
        </mxCell>
        <mxCell id="qo8VgZHHuWMzjGTpHocp-26" style="edgeStyle=orthogonalEdgeStyle;rounded=0;orthogonalLoop=1;jettySize=auto;html=1;entryX=0;entryY=0.5;entryDx=0;entryDy=0;" edge="1" parent="1" source="qo8VgZHHuWMzjGTpHocp-13" target="qo8VgZHHuWMzjGTpHocp-11">
          <mxGeometry relative="1" as="geometry" />
        </mxCell>
        <mxCell id="qo8VgZHHuWMzjGTpHocp-13" value="" style="image;aspect=fixed;html=1;points=[];align=center;fontSize=12;image=img/lib/azure2/general/Folder_Blank.svg;" vertex="1" parent="1">
          <mxGeometry x="86.5" y="764" width="69" height="56.00000000000001" as="geometry" />
        </mxCell>
        <mxCell id="qo8VgZHHuWMzjGTpHocp-27" style="edgeStyle=orthogonalEdgeStyle;rounded=0;orthogonalLoop=1;jettySize=auto;html=1;entryX=0;entryY=0.5;entryDx=0;entryDy=0;" edge="1" parent="1" source="qo8VgZHHuWMzjGTpHocp-14" target="qo8VgZHHuWMzjGTpHocp-17">
          <mxGeometry relative="1" as="geometry" />
        </mxCell>
        <mxCell id="qo8VgZHHuWMzjGTpHocp-28" style="edgeStyle=orthogonalEdgeStyle;rounded=0;orthogonalLoop=1;jettySize=auto;html=1;entryX=0;entryY=0.5;entryDx=0;entryDy=0;" edge="1" parent="1" source="qo8VgZHHuWMzjGTpHocp-14" target="qo8VgZHHuWMzjGTpHocp-18">
          <mxGeometry relative="1" as="geometry" />
        </mxCell>
        <mxCell id="qo8VgZHHuWMzjGTpHocp-29" style="edgeStyle=orthogonalEdgeStyle;rounded=0;orthogonalLoop=1;jettySize=auto;html=1;entryX=0;entryY=0.5;entryDx=0;entryDy=0;" edge="1" parent="1" source="qo8VgZHHuWMzjGTpHocp-14" target="qo8VgZHHuWMzjGTpHocp-19">
          <mxGeometry relative="1" as="geometry" />
        </mxCell>
        <mxCell id="qo8VgZHHuWMzjGTpHocp-14" value="" style="image;aspect=fixed;html=1;points=[];align=center;fontSize=12;image=img/lib/azure2/general/Folder_Blank.svg;" vertex="1" parent="1">
          <mxGeometry x="86.5" y="974" width="69" height="56.00000000000001" as="geometry" />
        </mxCell>
        <mxCell id="qo8VgZHHuWMzjGTpHocp-15" value="&lt;b&gt;CRM&lt;/b&gt;" style="text;html=1;align=center;verticalAlign=middle;whiteSpace=wrap;rounded=0;" vertex="1" parent="1">
          <mxGeometry x="91" y="816" width="60" height="30" as="geometry" />
        </mxCell>
        <mxCell id="qo8VgZHHuWMzjGTpHocp-16" value="&lt;b&gt;ERP&lt;/b&gt;" style="text;html=1;align=center;verticalAlign=middle;whiteSpace=wrap;rounded=0;" vertex="1" parent="1">
          <mxGeometry x="92" y="1030" width="60" height="30" as="geometry" />
        </mxCell>
        <mxCell id="qo8VgZHHuWMzjGTpHocp-71" style="edgeStyle=orthogonalEdgeStyle;rounded=0;orthogonalLoop=1;jettySize=auto;html=1;entryX=0;entryY=0.5;entryDx=0;entryDy=0;" edge="1" parent="1" source="qo8VgZHHuWMzjGTpHocp-17" target="qo8VgZHHuWMzjGTpHocp-43">
          <mxGeometry relative="1" as="geometry" />
        </mxCell>
        <mxCell id="qo8VgZHHuWMzjGTpHocp-17" value="" style="rounded=1;whiteSpace=wrap;html=1;fillColor=#CE8946;strokeColor=none;" vertex="1" parent="1">
          <mxGeometry x="301" y="934" width="160" height="40" as="geometry" />
        </mxCell>
        <mxCell id="qo8VgZHHuWMzjGTpHocp-72" style="edgeStyle=orthogonalEdgeStyle;rounded=0;orthogonalLoop=1;jettySize=auto;html=1;entryX=0;entryY=0.5;entryDx=0;entryDy=0;" edge="1" parent="1" source="qo8VgZHHuWMzjGTpHocp-18" target="qo8VgZHHuWMzjGTpHocp-44">
          <mxGeometry relative="1" as="geometry" />
        </mxCell>
        <mxCell id="qo8VgZHHuWMzjGTpHocp-18" value="" style="rounded=1;whiteSpace=wrap;html=1;fillColor=#CE8946;strokeColor=none;" vertex="1" parent="1">
          <mxGeometry x="301" y="982" width="160" height="40" as="geometry" />
        </mxCell>
        <mxCell id="qo8VgZHHuWMzjGTpHocp-19" value="" style="rounded=1;whiteSpace=wrap;html=1;fillColor=#CE8946;strokeColor=none;" vertex="1" parent="1">
          <mxGeometry x="302" y="1030" width="159" height="40" as="geometry" />
        </mxCell>
        <mxCell id="qo8VgZHHuWMzjGTpHocp-30" value="&lt;font style=&quot;font-size: 15px;&quot;&gt;crm_sales_details&lt;/font&gt;" style="text;html=1;align=center;verticalAlign=middle;whiteSpace=wrap;rounded=0;" vertex="1" parent="1">
          <mxGeometry x="319" y="729" width="120" height="30" as="geometry" />
        </mxCell>
        <mxCell id="qo8VgZHHuWMzjGTpHocp-31" value="&lt;font style=&quot;font-size: 15px;&quot;&gt;crm_cust_info&lt;/font&gt;" style="text;html=1;align=center;verticalAlign=middle;whiteSpace=wrap;rounded=0;" vertex="1" parent="1">
          <mxGeometry x="314" y="777" width="120" height="30" as="geometry" />
        </mxCell>
        <mxCell id="qo8VgZHHuWMzjGTpHocp-32" value="&lt;font style=&quot;font-size: 15px;&quot;&gt;crm_prd_info&lt;/font&gt;" style="text;html=1;align=center;verticalAlign=middle;whiteSpace=wrap;rounded=0;" vertex="1" parent="1">
          <mxGeometry x="314" y="825" width="120" height="30" as="geometry" />
        </mxCell>
        <mxCell id="qo8VgZHHuWMzjGTpHocp-33" value="&lt;font style=&quot;font-size: 15px;&quot;&gt;erp_cust_az12&lt;/font&gt;" style="text;html=1;align=center;verticalAlign=middle;whiteSpace=wrap;rounded=0;" vertex="1" parent="1">
          <mxGeometry x="322" y="939" width="120" height="30" as="geometry" />
        </mxCell>
        <mxCell id="qo8VgZHHuWMzjGTpHocp-34" value="&lt;font style=&quot;font-size: 15px;&quot;&gt;erp_loc_a101&lt;/font&gt;" style="text;html=1;align=center;verticalAlign=middle;whiteSpace=wrap;rounded=0;" vertex="1" parent="1">
          <mxGeometry x="316" y="987" width="120" height="30" as="geometry" />
        </mxCell>
        <mxCell id="qo8VgZHHuWMzjGTpHocp-35" value="&lt;font style=&quot;font-size: 15px;&quot;&gt;erp_px_cat_g1v2&lt;/font&gt;" style="text;html=1;align=center;verticalAlign=middle;whiteSpace=wrap;rounded=0;" vertex="1" parent="1">
          <mxGeometry x="321" y="1035" width="120" height="30" as="geometry" />
        </mxCell>
        <mxCell id="qo8VgZHHuWMzjGTpHocp-36" value="&lt;font style=&quot;font-size: 24px;&quot;&gt;&lt;b&gt;Data Flow Diagram&lt;/b&gt;&lt;/font&gt;" style="text;html=1;align=center;verticalAlign=middle;whiteSpace=wrap;rounded=0;" vertex="1" parent="1">
          <mxGeometry x="161" y="490" width="600" height="30" as="geometry" />
        </mxCell>
        <mxCell id="qo8VgZHHuWMzjGTpHocp-37" value="" style="rounded=1;whiteSpace=wrap;html=1;fillStyle=hatch;fillColor=#C0C0C0;opacity=30;strokeColor=#C0C0C0;strokeWidth=2;" vertex="1" parent="1">
          <mxGeometry x="550" y="654" width="180" height="486" as="geometry" />
        </mxCell>
        <mxCell id="qo8VgZHHuWMzjGTpHocp-38" value="" style="rounded=1;whiteSpace=wrap;html=1;fillColor=#C0C0C0;strokeColor=none;" vertex="1" parent="1">
          <mxGeometry x="551" y="609" width="179" height="40" as="geometry" />
        </mxCell>
        <mxCell id="qo8VgZHHuWMzjGTpHocp-39" value="&lt;b&gt;&lt;font style=&quot;font-size: 18px;&quot;&gt;Silver Layer&lt;/font&gt;&lt;/b&gt;" style="text;html=1;align=center;verticalAlign=middle;whiteSpace=wrap;rounded=0;" vertex="1" parent="1">
          <mxGeometry x="570" y="614" width="140" height="30" as="geometry" />
        </mxCell>
        <mxCell id="qo8VgZHHuWMzjGTpHocp-84" style="edgeStyle=orthogonalEdgeStyle;rounded=0;orthogonalLoop=1;jettySize=auto;html=1;entryX=0;entryY=0.25;entryDx=0;entryDy=0;" edge="1" parent="1" source="qo8VgZHHuWMzjGTpHocp-40" target="qo8VgZHHuWMzjGTpHocp-55">
          <mxGeometry relative="1" as="geometry" />
        </mxCell>
        <mxCell id="qo8VgZHHuWMzjGTpHocp-40" value="" style="rounded=1;whiteSpace=wrap;html=1;fillColor=#C0C0C0;strokeColor=none;" vertex="1" parent="1">
          <mxGeometry x="559" y="772" width="161" height="40" as="geometry" />
        </mxCell>
        <mxCell id="qo8VgZHHuWMzjGTpHocp-85" style="edgeStyle=orthogonalEdgeStyle;rounded=0;orthogonalLoop=1;jettySize=auto;html=1;entryX=0.056;entryY=0.691;entryDx=0;entryDy=0;entryPerimeter=0;" edge="1" parent="1" target="qo8VgZHHuWMzjGTpHocp-52">
          <mxGeometry relative="1" as="geometry">
            <mxPoint x="660" y="860" as="sourcePoint" />
            <mxPoint x="760" y="1010" as="targetPoint" />
            <Array as="points">
              <mxPoint x="660" y="900" />
              <mxPoint x="752" y="900" />
              <mxPoint x="752" y="990" />
            </Array>
          </mxGeometry>
        </mxCell>
        <mxCell id="qo8VgZHHuWMzjGTpHocp-41" value="" style="rounded=1;whiteSpace=wrap;html=1;fillColor=#C0C0C0;strokeColor=none;" vertex="1" parent="1">
          <mxGeometry x="560" y="820" width="160" height="40" as="geometry" />
        </mxCell>
        <mxCell id="qo8VgZHHuWMzjGTpHocp-42" value="" style="rounded=1;whiteSpace=wrap;html=1;fillColor=#C0C0C0;strokeColor=none;" vertex="1" parent="1">
          <mxGeometry x="559" y="724" width="161" height="40" as="geometry" />
        </mxCell>
        <mxCell id="qo8VgZHHuWMzjGTpHocp-43" value="" style="rounded=1;whiteSpace=wrap;html=1;fillColor=#C0C0C0;strokeColor=none;" vertex="1" parent="1">
          <mxGeometry x="560" y="934" width="160" height="40" as="geometry" />
        </mxCell>
        <mxCell id="qo8VgZHHuWMzjGTpHocp-87" style="edgeStyle=orthogonalEdgeStyle;rounded=0;orthogonalLoop=1;jettySize=auto;html=1;entryX=0;entryY=0.75;entryDx=0;entryDy=0;" edge="1" parent="1" source="qo8VgZHHuWMzjGTpHocp-44" target="qo8VgZHHuWMzjGTpHocp-55">
          <mxGeometry relative="1" as="geometry" />
        </mxCell>
        <mxCell id="qo8VgZHHuWMzjGTpHocp-44" value="" style="rounded=1;whiteSpace=wrap;html=1;fillColor=#C0C0C0;strokeColor=none;" vertex="1" parent="1">
          <mxGeometry x="560" y="982" width="160" height="40" as="geometry" />
        </mxCell>
        <mxCell id="qo8VgZHHuWMzjGTpHocp-45" value="" style="rounded=1;whiteSpace=wrap;html=1;fillColor=#C0C0C0;strokeColor=none;" vertex="1" parent="1">
          <mxGeometry x="561" y="1030" width="159" height="40" as="geometry" />
        </mxCell>
        <mxCell id="qo8VgZHHuWMzjGTpHocp-46" value="&lt;font style=&quot;font-size: 15px;&quot;&gt;crm_sales_details&lt;/font&gt;" style="text;html=1;align=center;verticalAlign=middle;whiteSpace=wrap;rounded=0;" vertex="1" parent="1">
          <mxGeometry x="578" y="729" width="120" height="30" as="geometry" />
        </mxCell>
        <mxCell id="qo8VgZHHuWMzjGTpHocp-47" value="&lt;font style=&quot;font-size: 15px;&quot;&gt;crm_cust_info&lt;/font&gt;" style="text;html=1;align=center;verticalAlign=middle;whiteSpace=wrap;rounded=0;" vertex="1" parent="1">
          <mxGeometry x="573" y="777" width="120" height="30" as="geometry" />
        </mxCell>
        <mxCell id="qo8VgZHHuWMzjGTpHocp-48" value="&lt;font style=&quot;font-size: 15px;&quot;&gt;crm_prd_info&lt;/font&gt;" style="text;html=1;align=center;verticalAlign=middle;whiteSpace=wrap;rounded=0;" vertex="1" parent="1">
          <mxGeometry x="573" y="825" width="120" height="30" as="geometry" />
        </mxCell>
        <mxCell id="qo8VgZHHuWMzjGTpHocp-49" value="&lt;font style=&quot;font-size: 15px;&quot;&gt;erp_cust_az12&lt;/font&gt;" style="text;html=1;align=center;verticalAlign=middle;whiteSpace=wrap;rounded=0;" vertex="1" parent="1">
          <mxGeometry x="581" y="939" width="120" height="30" as="geometry" />
        </mxCell>
        <mxCell id="qo8VgZHHuWMzjGTpHocp-50" value="&lt;font style=&quot;font-size: 15px;&quot;&gt;erp_loc_a101&lt;/font&gt;" style="text;html=1;align=center;verticalAlign=middle;whiteSpace=wrap;rounded=0;" vertex="1" parent="1">
          <mxGeometry x="575" y="987" width="120" height="30" as="geometry" />
        </mxCell>
        <mxCell id="qo8VgZHHuWMzjGTpHocp-51" value="&lt;font style=&quot;font-size: 15px;&quot;&gt;erp_px_cat_g1v2&lt;/font&gt;" style="text;html=1;align=center;verticalAlign=middle;whiteSpace=wrap;rounded=0;" vertex="1" parent="1">
          <mxGeometry x="580" y="1035" width="120" height="30" as="geometry" />
        </mxCell>
        <mxCell id="qo8VgZHHuWMzjGTpHocp-52" value="" style="rounded=1;whiteSpace=wrap;html=1;fillStyle=hatch;fillColor=light-dark(#FFD700,#EDEDED);opacity=30;strokeColor=light-dark(#FFD700,#EDEDED);strokeWidth=2;" vertex="1" parent="1">
          <mxGeometry x="800" y="654" width="180" height="486" as="geometry" />
        </mxCell>
        <mxCell id="qo8VgZHHuWMzjGTpHocp-53" value="" style="rounded=1;whiteSpace=wrap;html=1;fillColor=light-dark(#FFD700,#EDEDED);strokeColor=none;" vertex="1" parent="1">
          <mxGeometry x="801" y="609" width="180" height="40" as="geometry" />
        </mxCell>
        <mxCell id="qo8VgZHHuWMzjGTpHocp-54" value="&lt;b&gt;&lt;font style=&quot;font-size: 18px;&quot;&gt;Gold Layer&lt;/font&gt;&lt;/b&gt;" style="text;html=1;align=center;verticalAlign=middle;whiteSpace=wrap;rounded=0;" vertex="1" parent="1">
          <mxGeometry x="821" y="614" width="140" height="30" as="geometry" />
        </mxCell>
        <mxCell id="qo8VgZHHuWMzjGTpHocp-55" value="" style="rounded=1;whiteSpace=wrap;html=1;fillColor=light-dark(#FFD700,#EDEDED);strokeColor=none;" vertex="1" parent="1">
          <mxGeometry x="810" y="850" width="161" height="40" as="geometry" />
        </mxCell>
        <mxCell id="qo8VgZHHuWMzjGTpHocp-56" value="" style="rounded=1;whiteSpace=wrap;html=1;fillColor=light-dark(#FFD700,#EDEDED);strokeColor=none;" vertex="1" parent="1">
          <mxGeometry x="811" y="974" width="160" height="40" as="geometry" />
        </mxCell>
        <mxCell id="qo8VgZHHuWMzjGTpHocp-57" value="" style="rounded=1;whiteSpace=wrap;html=1;fillColor=light-dark(#FFD700,#EDEDED);strokeColor=none;" vertex="1" parent="1">
          <mxGeometry x="810" y="724" width="161" height="40" as="geometry" />
        </mxCell>
        <mxCell id="qo8VgZHHuWMzjGTpHocp-61" value="&lt;font style=&quot;font-size: 15px;&quot;&gt;fact_sales&lt;/font&gt;" style="text;html=1;align=center;verticalAlign=middle;whiteSpace=wrap;rounded=0;" vertex="1" parent="1">
          <mxGeometry x="829" y="729" width="120" height="30" as="geometry" />
        </mxCell>
        <mxCell id="qo8VgZHHuWMzjGTpHocp-62" value="&lt;font style=&quot;font-size: 15px;&quot;&gt;dim_customers&lt;/font&gt;" style="text;html=1;align=center;verticalAlign=middle;whiteSpace=wrap;rounded=0;" vertex="1" parent="1">
          <mxGeometry x="824" y="855" width="120" height="30" as="geometry" />
        </mxCell>
        <mxCell id="qo8VgZHHuWMzjGTpHocp-63" value="&lt;font style=&quot;font-size: 15px;&quot;&gt;dim_products&lt;/font&gt;" style="text;html=1;align=center;verticalAlign=middle;whiteSpace=wrap;rounded=0;" vertex="1" parent="1">
          <mxGeometry x="824" y="979" width="120" height="30" as="geometry" />
        </mxCell>
        <mxCell id="qo8VgZHHuWMzjGTpHocp-74" style="edgeStyle=orthogonalEdgeStyle;rounded=0;orthogonalLoop=1;jettySize=auto;html=1;entryX=0;entryY=0.5;entryDx=0;entryDy=0;" edge="1" parent="1" source="qo8VgZHHuWMzjGTpHocp-19" target="qo8VgZHHuWMzjGTpHocp-45">
          <mxGeometry relative="1" as="geometry" />
        </mxCell>
        <mxCell id="qo8VgZHHuWMzjGTpHocp-83" style="edgeStyle=orthogonalEdgeStyle;rounded=0;orthogonalLoop=1;jettySize=auto;html=1;entryX=0.056;entryY=0.185;entryDx=0;entryDy=0;entryPerimeter=0;" edge="1" parent="1" source="qo8VgZHHuWMzjGTpHocp-42" target="qo8VgZHHuWMzjGTpHocp-52">
          <mxGeometry relative="1" as="geometry" />
        </mxCell>
        <mxCell id="qo8VgZHHuWMzjGTpHocp-86" style="edgeStyle=orthogonalEdgeStyle;rounded=0;orthogonalLoop=1;jettySize=auto;html=1;entryX=0.056;entryY=0.444;entryDx=0;entryDy=0;entryPerimeter=0;" edge="1" parent="1" source="qo8VgZHHuWMzjGTpHocp-43" target="qo8VgZHHuWMzjGTpHocp-52">
          <mxGeometry relative="1" as="geometry" />
        </mxCell>
        <mxCell id="qo8VgZHHuWMzjGTpHocp-91" style="edgeStyle=orthogonalEdgeStyle;rounded=0;orthogonalLoop=1;jettySize=auto;html=1;entryX=-0.003;entryY=0.878;entryDx=0;entryDy=0;entryPerimeter=0;" edge="1" parent="1" source="qo8VgZHHuWMzjGTpHocp-45" target="qo8VgZHHuWMzjGTpHocp-56">
          <mxGeometry relative="1" as="geometry" />
        </mxCell>
      </root>
    </mxGraphModel>
  </diagram>
</mxfile>
